<?xml version="1.0" encoding="utf-8"?>
<!-- Generator: Adobe Illustrator 19.2.1, SVG Export Plug-In . SVG Version: 6.00 Build 0)  -->
<svg version="1.1" id="Layer_1" xmlns="http://www.w3.org/2000/svg" xmlns:xlink="http://www.w3.org/1999/xlink" x="0px" y="0px"
	 viewBox="0 0 800 600" style="enable-background:new 0 0 800 600;" xml:space="preserve">
<style type="text/css">
	.st0{fill:none;stroke:#FFFFFF;stroke-width:37.0846;stroke-linejoin:round;stroke-miterlimit:10;}
	.st1{fill:#FFFFFF;}
	.st2{fill:#FFFFFF;stroke:#FFFFFF;stroke-width:4.9033;stroke-linejoin:round;stroke-miterlimit:10;}
</style>
<g>
	<polygon class="st0" points="98.8,108.2 73,108.2 73,491.8 701.2,491.8 727,491.8 727,108.2 	"/>
	<g>
		<polygon class="st1" points="562.2,419.3 557.5,422.3 569,449.5 579.2,445.2 567.7,418 		"/>
		<path class="st1" d="M540.3,367.8l-0.2,56.1l17.9-11.6c0.6-0.4,1.2-0.6,1.8-0.8l20.8-4.8L540.3,367.8z"/>
	</g>
	<path class="st2" d="M450.7,205.7H349.3c-5.9,0-10.7,4.8-10.7,10.7v99.9c0,5.9,4.8,10.7,10.7,10.7h101.3c5.9,0,10.7-4.8,10.7-10.7
		v-99.9C461.3,210.4,456.5,205.7,450.7,205.7z"/>
	<path class="st2" d="M273.2,205.7H171.9c-5.9,0-10.7,4.8-10.7,10.7v99.9c0,5.9,4.8,10.7,10.7,10.7h101.3c5.9,0,10.7-4.8,10.7-10.7
		v-99.9C283.9,210.4,279.1,205.7,273.2,205.7z"/>
	<path class="st2" d="M628.1,205.7H526.8c-5.9,0-10.7,4.8-10.7,10.7v99.9c0,5.9,4.8,10.7,10.7,10.7h101.3c5.9,0,10.7-4.8,10.7-10.7
		v-99.9C638.8,210.4,634,205.7,628.1,205.7z"/>
</g>
</svg>
