<?xml version="1.0" encoding="utf-8"?>
<!-- Generator: Adobe Illustrator 19.2.1, SVG Export Plug-In . SVG Version: 6.00 Build 0)  -->
<svg version="1.1" id="Layer_1" xmlns="http://www.w3.org/2000/svg" xmlns:xlink="http://www.w3.org/1999/xlink" x="0px" y="0px"
	 viewBox="0 0 800 600" style="enable-background:new 0 0 800 600;" xml:space="preserve">
<style type="text/css">
	.st0{fill:#FFFFFF;}
</style>
<g>
	<path class="st0" d="M345.7,438.4C373.1,290.6,560.2,182.7,695,161.6c-135.8,52.8-262.6,155-286.6,276.7H345.7z"/>
	<path class="st0" d="M462,438.4c17.9-105.9,127.7-233.6,306.3-276.7c-142.6,77.2-217.7,173.2-233.2,276.7H462z"/>
	<path class="st0" d="M315.4,273.3c-8.8,6.7-17.2,13.5-25.2,20.4l0,0C258.3,262,184,211.1,67.8,228.4
		C100.9,214.6,219.7,193.2,315.4,273.3L315.4,273.3z"/>
	<path class="st0" d="M272.9,309.2c-9,8.4-17.5,16.8-25.2,25.1l0,0c-30.7-35.1-96.8-93.4-196.2-73.8
		c37.1-22.2,123.8-35.1,220.9,48.3L272.9,309.2z"/>
	<path class="st0" d="M230.5,353.6c-11.1,13.2-20.4,25.9-27.8,37.5l0,0c-27.1-53.1-77.4-105.9-171-98.9
		C58.7,277.9,135.9,252.4,230.5,353.6L230.5,353.6z"/>
	<path class="st0" d="M221.6,438.4c5.7-56.8,162.1-248.5,403-276.7C465,204,318,321.8,294.8,438.4H221.6z"/>
</g>
</svg>
